<svg xmlns="http://www.w3.org/2000/svg" xmlns:xlink="http://www.w3.org/1999/xlink" width="769" zoomAndPan="magnify" viewBox="0 0 576.75 136.499996" height="182" preserveAspectRatio="xMidYMid meet" version="1.0"><defs><g/><clipPath id="ab8bf64beb"><path d="M 105.042969 8.738281 L 178 8.738281 L 178 126 L 105.042969 126 Z M 105.042969 8.738281 " clip-rule="nonzero"/></clipPath></defs><g fill="#ff66c4" fill-opacity="1"><g transform="translate(178.338754, 106.433933)"><g><path d="M 3.140625 -73.359375 L 20.4375 -73.359375 L 35.625 -23.6875 L 52.078125 -73.5625 L 65.921875 -73.5625 L 82.375 -23.6875 L 97.5625 -73.359375 L 114.4375 -73.359375 L 89.390625 0.53125 L 75.34375 0.53125 L 58.796875 -47.46875 L 42.234375 0.53125 L 28.1875 0.53125 Z M 3.140625 -73.359375 "/></g></g></g><g fill="#ff66c4" fill-opacity="1"><g transform="translate(295.927101, 106.433933)"><g><path d="M 9.53125 -73.359375 L 25.671875 -73.359375 L 25.671875 0 L 9.53125 0 Z M 9.53125 -73.359375 "/></g></g></g><g fill="#ff66c4" fill-opacity="1"><g transform="translate(331.140688, 106.433933)"><g><path d="M 8.796875 -73.359375 L 38.78125 -73.359375 C 43.175781 -73.359375 47.101562 -72.742188 50.5625 -71.515625 C 54.019531 -70.296875 56.953125 -68.566406 59.359375 -66.328125 C 61.773438 -64.097656 63.628906 -61.425781 64.921875 -58.3125 C 66.210938 -55.207031 66.859375 -51.769531 66.859375 -48 L 66.859375 -47.78125 C 66.859375 -43.519531 66.085938 -39.78125 64.546875 -36.5625 C 63.015625 -33.351562 60.90625 -30.664062 58.21875 -28.5 C 55.53125 -26.332031 52.382812 -24.707031 48.78125 -23.625 C 45.1875 -22.539062 41.328125 -22 37.203125 -22 L 24.9375 -22 L 24.9375 0 L 8.796875 0 Z M 37.734375 -36.359375 C 41.785156 -36.359375 44.925781 -37.421875 47.15625 -39.546875 C 49.394531 -41.679688 50.515625 -44.320312 50.515625 -47.46875 L 50.515625 -47.6875 C 50.515625 -51.3125 49.34375 -54.066406 47 -55.953125 C 44.65625 -57.847656 41.457031 -58.796875 37.40625 -58.796875 L 24.9375 -58.796875 L 24.9375 -36.359375 Z M 37.734375 -36.359375 "/></g></g></g><g fill="#ff66c4" fill-opacity="1"><g transform="translate(401.148682, 106.433933)"><g><path d="M 8.796875 -73.359375 L 64.140625 -73.359375 L 64.140625 -59 L 24.84375 -59 L 24.84375 -44.125 L 59.421875 -44.125 L 59.421875 -29.765625 L 24.84375 -29.765625 L 24.84375 -14.359375 L 64.65625 -14.359375 L 64.65625 0 L 8.796875 0 Z M 8.796875 -73.359375 "/></g></g></g><g clip-path="url(#ab8bf64beb)"><path fill="#ff66c4" d="M 127.683594 94.46875 C 130.347656 97.300781 133.648438 99.109375 137.601562 99.875 L 137.601562 72.957031 C 137.167969 72.785156 136.59375 72.59375 135.863281 72.371094 C 135.132812 72.160156 134.335938 71.96875 133.480469 71.796875 C 130.300781 70.941406 127.167969 69.925781 124.078125 68.765625 C 120.988281 67.609375 118.214844 66.058594 115.765625 64.128906 C 113.316406 62.195312 111.363281 59.789062 109.910156 56.914062 C 108.449219 54.039062 107.71875 50.453125 107.71875 46.152344 C 107.71875 41.773438 108.558594 37.910156 110.234375 34.566406 C 111.90625 31.21875 114.113281 28.402344 116.863281 26.128906 C 119.609375 23.851562 122.785156 22.089844 126.394531 20.851562 C 130 19.601562 133.738281 18.859375 137.601562 18.59375 L 137.601562 8.6875 L 145.199219 8.6875 L 145.199219 18.609375 C 149.0625 19.035156 152.691406 19.875 156.085938 21.117188 C 159.476562 22.363281 162.464844 24.082031 165.039062 26.269531 C 167.613281 28.460938 169.714844 31.191406 171.351562 34.449219 C 172.980469 37.71875 173.925781 41.582031 174.183594 46.042969 L 155.894531 46.042969 C 155.804688 42.605469 154.734375 39.6875 152.671875 37.28125 C 150.613281 34.878906 148.121094 33.667969 145.207031 33.667969 L 145.207031 56.464844 C 146.238281 56.722656 147.285156 56.980469 148.363281 57.238281 C 149.441406 57.496094 150.574219 57.800781 151.777344 58.140625 C 158.136719 59.855469 163.023438 61.988281 166.460938 64.519531 C 169.890625 67.046875 172.429688 69.695312 174.058594 72.4375 C 175.6875 75.183594 176.65625 77.933594 176.957031 80.683594 C 177.257812 83.4375 177.40625 85.878906 177.40625 88.023438 C 177.40625 89.917969 176.933594 92.292969 175.992188 95.167969 C 175.046875 98.054688 173.351562 100.855469 170.902344 103.605469 C 168.453125 106.359375 165.171875 108.804688 161.046875 110.953125 C 156.925781 113.097656 151.644531 114.382812 145.207031 114.816406 L 145.207031 125.761719 L 137.609375 125.761719 L 137.609375 114.816406 C 127.992188 114.132812 120.476562 111.167969 115.070312 105.929688 C 109.660156 100.695312 106.523438 93.007812 105.667969 82.875 L 123.832031 82.875 C 123.738281 87.773438 125.027344 91.628906 127.683594 94.46875 Z M 133.355469 34.316406 C 131.984375 34.746094 130.738281 35.414062 129.625 36.308594 C 128.507812 37.214844 127.632812 38.328125 126.984375 39.65625 C 126.339844 40.992188 126.015625 42.554688 126.015625 44.355469 C 126.015625 47.195312 126.917969 49.378906 128.722656 50.925781 C 130.523438 52.46875 133.488281 53.714844 137.609375 54.65625 L 137.609375 33.667969 C 136.144531 33.667969 134.726562 33.882812 133.355469 34.316406 Z M 150.039062 98.785156 C 151.710938 98.222656 153.214844 97.425781 154.542969 96.402344 C 155.871094 95.375 156.96875 94.101562 157.824219 92.597656 C 158.679688 91.097656 159.117188 89.3125 159.117188 87.25 C 159.117188 83.902344 158.0625 81.394531 155.960938 79.71875 C 153.859375 78.042969 150.273438 76.519531 145.207031 75.144531 L 145.207031 99.875 C 146.75 99.707031 148.363281 99.34375 150.039062 98.785156 Z M 150.039062 98.785156 " fill-opacity="1" fill-rule="nonzero"/></g></svg>